<svg width="17" height="16" viewBox="0 0 17 16" fill="none" xmlns="http://www.w3.org/2000/svg">
<path d="M15.3727 10.8795L11.6922 9.23031L11.682 9.22562C11.491 9.1439 11.2825 9.11111 11.0756 9.1302C10.8687 9.1493 10.6698 9.21969 10.4969 9.335C10.4765 9.34844 10.457 9.36305 10.4383 9.37875L8.53673 10.9998C7.33204 10.4147 6.08829 9.18031 5.50313 7.99125L7.12657 6.06078C7.14219 6.04125 7.15704 6.02172 7.1711 6.00062C7.28394 5.8282 7.35239 5.63056 7.37039 5.42529C7.38838 5.22002 7.35534 5.01348 7.27423 4.82406V4.81469L5.62032 1.12797C5.51309 0.880517 5.3287 0.674385 5.09468 0.540341C4.86067 0.406297 4.58958 0.35153 4.32188 0.384217C3.26326 0.523519 2.29155 1.04341 1.58824 1.84679C0.884919 2.65017 0.498093 3.6821 0.500007 4.74984C0.500007 10.953 5.54688 15.9998 11.75 15.9998C12.8177 16.0018 13.8497 15.6149 14.6531 14.9116C15.4564 14.2083 15.9763 13.2366 16.1156 12.178C16.1484 11.9104 16.0937 11.6393 15.9598 11.4053C15.8259 11.1713 15.62 10.9869 15.3727 10.8795ZM11.75 14.7498C9.09873 14.7469 6.55687 13.6924 4.68214 11.8177C2.8074 9.94298 1.7529 7.40112 1.75001 4.74984C1.74707 3.98694 2.02192 3.24906 2.52324 2.67399C3.02456 2.09892 3.71806 1.72599 4.47423 1.62484C4.47392 1.62796 4.47392 1.6311 4.47423 1.63422L6.11485 5.30609L4.50001 7.2389C4.48362 7.25776 4.46873 7.27788 4.45548 7.29906C4.33791 7.47947 4.26894 7.68718 4.25525 7.90208C4.24157 8.11697 4.28362 8.33176 4.37735 8.52562C5.08516 9.97328 6.54376 11.4209 8.00704 12.128C8.20232 12.2208 8.41835 12.2614 8.63403 12.2458C8.8497 12.2302 9.05763 12.1589 9.23751 12.0389C9.25757 12.0254 9.27687 12.0108 9.29532 11.9952L11.1945 10.3748L14.8664 12.0194C14.8664 12.0194 14.8727 12.0194 14.875 12.0194C14.7751 12.7766 14.4027 13.4715 13.8275 13.9741C13.2524 14.4766 12.5138 14.7524 11.75 14.7498Z" fill="#158BE3"/>
</svg>
