<svg width="40" height="40" viewBox="0 0 40 40" fill="none" xmlns="http://www.w3.org/2000/svg">
<rect width="40" height="40" rx="20" fill="#E6EAF9"/>
<path d="M30.5 25.2501H29.75V13.4282L30.6566 13.2332C30.755 13.2148 30.8487 13.1768 30.9321 13.1216C31.0156 13.0663 31.0872 12.995 31.1427 12.9116C31.1981 12.8283 31.2364 12.7347 31.2551 12.6363C31.2738 12.538 31.2726 12.4369 31.2517 12.339C31.2307 12.2411 31.1904 12.1484 31.133 12.0664C31.0756 11.9843 31.0024 11.9146 30.9177 11.8613C30.833 11.808 30.7384 11.7722 30.6396 11.756C30.5408 11.7398 30.4398 11.7435 30.3425 11.767L9.3425 16.267C9.16159 16.306 9.00149 16.4106 8.89302 16.5605C8.78455 16.7105 8.73535 16.8953 8.75489 17.0793C8.77444 17.2634 8.86134 17.4337 8.99889 17.5575C9.13644 17.6813 9.31492 17.7499 9.5 17.7501C9.55326 17.75 9.60636 17.7444 9.65844 17.7332L10.25 17.6067V25.2501H9.5C9.30109 25.2501 9.11032 25.3291 8.96967 25.4698C8.82902 25.6104 8.75 25.8012 8.75 26.0001C8.75 26.199 8.82902 26.3898 8.96967 26.5304C9.11032 26.6711 9.30109 26.7501 9.5 26.7501H30.5C30.6989 26.7501 30.8897 26.6711 31.0303 26.5304C31.171 26.3898 31.25 26.199 31.25 26.0001C31.25 25.8012 31.171 25.6104 31.0303 25.4698C30.8897 25.3291 30.6989 25.2501 30.5 25.2501ZM11.75 17.2814L28.25 13.7498V25.2501H26V20.0001C26 19.8012 25.921 19.6104 25.7803 19.4698C25.6397 19.3291 25.4489 19.2501 25.25 19.2501H14.75C14.5511 19.2501 14.3603 19.3291 14.2197 19.4698C14.079 19.6104 14 19.8012 14 20.0001V25.2501H11.75V17.2814ZM24.5 22.2501H15.5V20.7501H24.5V22.2501ZM15.5 23.7501H24.5V25.2501H15.5V23.7501Z" fill="#158BE3"/>
</svg>
