<svg width="40" height="40" viewBox="0 0 40 40" fill="none" xmlns="http://www.w3.org/2000/svg">
<rect width="40" height="40" rx="20" fill="#E6EAF9"/>
<path d="M31.25 19.2498C31.2488 18.0567 30.7743 16.9129 29.9306 16.0692C29.087 15.2256 27.9431 14.7511 26.75 14.7498H23.0187C22.7459 14.7339 17.9919 14.3992 13.4647 10.6023C13.2461 10.4187 12.9796 10.3013 12.6966 10.2639C12.4135 10.2265 12.1257 10.2706 11.8669 10.3911C11.6081 10.5116 11.389 10.7035 11.2355 10.9442C11.0819 11.1848 11.0002 11.4643 11 11.7498V26.7498C11 27.0354 11.0816 27.315 11.2351 27.5558C11.3886 27.7967 11.6076 27.9887 11.8665 28.1093C12.1253 28.2299 12.4132 28.2741 12.6963 28.2367C12.9794 28.1994 13.246 28.0819 13.4647 27.8983C17.0056 24.9283 20.6834 24.077 22.25 23.8389V26.8126C22.2497 27.0598 22.3105 27.3032 22.4269 27.5213C22.5434 27.7393 22.7119 27.9252 22.9175 28.0623L23.9487 28.7495C24.1481 28.8826 24.3764 28.9659 24.6145 28.9926C24.8527 29.0193 25.0938 28.9885 25.3176 28.9028C25.5414 28.8172 25.7414 28.6791 25.901 28.5003C26.0605 28.3214 26.1748 28.107 26.2344 27.8748L27.3378 23.7161C28.4204 23.572 29.4138 23.0398 30.1334 22.2183C30.853 21.3968 31.2498 20.3419 31.25 19.2498ZM12.5 26.7433V11.7498C16.5134 15.1164 20.6216 15.9686 22.25 16.1786V22.3173C20.6234 22.5311 16.5163 23.3814 12.5 26.7433ZM24.7812 27.4933V27.5036L23.75 26.8164V23.7498H25.775L24.7812 27.4933ZM26.75 22.2498H23.75V16.2498H26.75C27.5456 16.2498 28.3087 16.5659 28.8713 17.1285C29.4339 17.6911 29.75 18.4542 29.75 19.2498C29.75 20.0455 29.4339 20.8085 28.8713 21.3712C28.3087 21.9338 27.5456 22.2498 26.75 22.2498Z" fill="#158BE3"/>
</svg>
